<svg xmlns="http://www.w3.org/2000/svg" viewBox="0 0 720 420" width="720" height="420" role="img" aria-label="4 workers on c3-standard-192-metal, 4096 chunks, performance governor; band spans the nearest measured points">
<style>
.fg{fill:#1b1b1b}.axis{stroke:#8a8a8a;stroke-width:1}
.grid{stroke:#d8d8d8;stroke-width:1}
.unity{stroke:#1b1b1b;stroke-width:1.5;stroke-dasharray:5 4}
.band{fill:#f0a202;opacity:0.16}
text{font-family:system-ui,-apple-system,Segoe UI,sans-serif;font-size:12px}
@media (prefers-color-scheme: dark){.fg{fill:#e8e8e8}.axis{stroke:#7d7d7d}.grid{stroke:#333}.unity{stroke:#e8e8e8}}
</style>
<rect class="band" x="76.6" y="30" width="125.5" height="310"/>
<line class="grid" x1="64" y1="340.0" x2="700" y2="340.0"/>
<text class="fg" x="54" y="344.0" text-anchor="end">0.0x</text>
<line class="grid" x1="64" y1="301.2" x2="700" y2="301.2"/>
<text class="fg" x="54" y="305.2" text-anchor="end">0.5x</text>
<line class="grid" x1="64" y1="262.5" x2="700" y2="262.5"/>
<text class="fg" x="54" y="266.5" text-anchor="end">1.0x</text>
<line class="grid" x1="64" y1="223.8" x2="700" y2="223.8"/>
<text class="fg" x="54" y="227.8" text-anchor="end">1.5x</text>
<line class="grid" x1="64" y1="185.0" x2="700" y2="185.0"/>
<text class="fg" x="54" y="189.0" text-anchor="end">2.0x</text>
<line class="grid" x1="64" y1="146.2" x2="700" y2="146.2"/>
<text class="fg" x="54" y="150.2" text-anchor="end">2.5x</text>
<line class="grid" x1="64" y1="107.5" x2="700" y2="107.5"/>
<text class="fg" x="54" y="111.5" text-anchor="end">3.0x</text>
<line class="grid" x1="64" y1="68.8" x2="700" y2="68.8"/>
<text class="fg" x="54" y="72.8" text-anchor="end">3.5x</text>
<line class="grid" x1="64" y1="30.0" x2="700" y2="30.0"/>
<text class="fg" x="54" y="34.0" text-anchor="end">4.0x</text>
<line class="grid" x1="64.0" y1="30" x2="64.0" y2="340"/>
<text class="fg" x="64.0" y="358.0" text-anchor="middle">10</text>
<line class="grid" x1="276.0" y1="30" x2="276.0" y2="340"/>
<text class="fg" x="276.0" y="358.0" text-anchor="middle">100</text>
<line class="grid" x1="488.0" y1="30" x2="488.0" y2="340"/>
<text class="fg" x="488.0" y="358.0" text-anchor="middle">1k</text>
<line class="grid" x1="700.0" y1="30" x2="700.0" y2="340"/>
<text class="fg" x="700.0" y="358.0" text-anchor="middle">10k</text>
<line class="unity" x1="64" y1="262.5" x2="700" y2="262.5"/>
<text class="fg" x="696" y="256.5" text-anchor="end">serial and pool equal</text>
<path d="M76.6,313.3 L202.1,249.1 L206.0,250.1 L273.2,191.7 L325.8,147.6 L383.1,89.9 L660.0,33.2" fill="none" stroke="#2a6f97" stroke-width="2"/>
<circle class="pt" cx="76.6" cy="313.3" r="4" fill="#2a6f97"/>
<circle class="pt" cx="202.1" cy="249.1" r="4" fill="#2a6f97"/>
<circle class="pt" cx="206.0" cy="250.1" r="4" fill="#2a6f97"/>
<circle class="pt" cx="273.2" cy="191.7" r="4" fill="#2a6f97"/>
<circle class="pt" cx="325.8" cy="147.6" r="4" fill="#2a6f97"/>
<circle class="pt" cx="383.1" cy="89.9" r="4" fill="#2a6f97"/>
<circle class="pt" cx="660.0" cy="33.2" r="4" fill="#2a6f97"/>
<circle cx="76" cy="42.0" r="4" fill="#2a6f97"/>
<text class="fg" x="88" y="46.0">4 workers, one worker per physical core</text>
<line class="axis" x1="64" y1="340" x2="700" y2="340"/>
<line class="axis" x1="64" y1="30" x2="64" y2="340"/>
<text class="fg" x="382" y="380" text-anchor="middle">work per chunk (nanoseconds, log scale)</text>
<text class="fg" x="16" y="185" transform="rotate(-90 16 185)" text-anchor="middle">speedup over serial</text>
<text class="fg" x="382" y="408" text-anchor="middle" opacity="0.75">4 workers on c3-standard-192-metal, 4096 chunks, performance governor; band spans the nearest measured points</text>
</svg>